<svg width="64" height="55" viewBox="0 0 64 55" fill="none" xmlns="http://www.w3.org/2000/svg">
<path d="M48.1852 48.7181C48.1852 61.1151 41.1067 48.7181 32.3749 48.7181C23.6432 48.7181 16.5647 61.1151 16.5647 48.7181C16.5647 36.3212 23.6432 26.2715 32.3749 26.2715C41.1067 26.2715 48.1852 36.3212 48.1852 48.7181Z" fill="black"/>
<path d="M17.6228 22.6275C17.6228 27.821 19.4396 33.5279 15.3165 34.9504C11.1935 36.3728 8.61998 32.262 4.50286 27.821C2.65366 22.461 3.32886 17.8891 6.64568 14.7303C11.2261 14.7303 15.7736 17.2675 17.6228 22.6275Z" fill="black"/>
<path d="M38.4545 12.9119C36.4222 18.2227 36.0467 24.7695 31.2739 24.6107C26.5011 24.4518 25.4781 19.2411 23.0059 13.0886C23.2124 6.88392 25.692 2.47298 30.3198 0.540703C35.0037 2.33312 38.661 6.70726 38.4545 12.9119Z" fill="black"/>
<path d="M58.5769 26.2147C54.5992 29.9257 51.5264 35.3949 47.4909 33.2535C43.4554 31.1121 44.765 26.2038 45.2246 19.8771C48.0084 14.631 51.9924 11.8813 56.7818 12.1645C60.0547 15.6726 61.3607 20.9686 58.5769 26.2147Z" fill="black"/>
</svg>
